<?xml version="1.0" encoding="iso-8859-1"?>
<!-- Generator: Adobe Illustrator 19.0.0, SVG Export Plug-In . SVG Version: 6.00 Build 0)  -->
<svg version="1.1" id="Capa_1" xmlns="http://www.w3.org/2000/svg" xmlns:xlink="http://www.w3.org/1999/xlink" x="0px" y="0px"
	 viewBox="0 0 480.419 480.419" style="enable-background:new 0 0 480.419 480.419;" xml:space="preserve">
<g>
	<path style="fill:#57D0DD;" d="M272.418,464.663v7.546h208v-72C365.449,400.21,272.418,428.616,272.418,464.663z"/>
	<path style="fill:#57D0DD;" d="M0,400.21v72h216.844v-7.546C216.844,428.616,114.969,400.21,0,400.21z"/>
</g>
<path style="fill:#FCD821;" d="M240.422,64.21c-61.856,0-112,47.01-112,105c-0.626,42.235,24.813,80.497,64,96.263l3.2,1.737
	l12.8,21h64l12.8-21l3.2-1.737c39.187-15.766,64.626-54.028,64-96.263C352.422,111.219,302.278,64.21,240.422,64.21L240.422,64.21z"
	/>
<g>
	<path style="fill:#EC322C;" d="M232.422,301.866h-16v-68.687l-37.656-37.656l11.312-11.313l40,40c1.5,1.5,2.343,3.534,2.344,5.656
		L232.422,301.866z"/>
	<path style="fill:#EC322C;" d="M264.422,301.866h-16v-72c0.001-2.122,0.844-4.156,2.344-5.656l40-40l11.312,11.312l-37.656,37.656
		V301.866z"/>
</g>
<path style="fill:#4D5B99;" d="M208.422,288.21h64c8.837,0,16,7.163,16,16l0,0c0,8.837-7.163,16-16,16h-64c-8.837,0-16-7.163-16-16
	l0,0C192.422,295.373,199.585,288.21,208.422,288.21z"/>
<g>
	<path style="fill:#B6DEDC;" d="M272.418,464.663v7.546h1.799c13.228-31.933,100.392-56,206.201-56v-16
		C365.449,400.21,272.418,428.616,272.418,464.663z"/>
	<path style="fill:#B6DEDC;" d="M0,400.21v16c105.809,0,200.458,24.067,214.88,56h1.964v-7.546
		C216.844,428.616,114.969,400.21,0,400.21z"/>
</g>
<path style="fill:#344496;" d="M208.422,320.21h64c8.837,0,16,7.163,16,16l0,0c0,8.837-7.163,16-16,16h-64c-8.837,0-16-7.163-16-16
	l0,0C192.422,327.373,199.585,320.21,208.422,320.21z"/>
<g>
	<path style="fill:#FCD821;" d="M68.843,71.365l7.156-14.313l48,24l-7.156,14.313L68.843,71.365z"/>
	<path style="fill:#FCD821;" d="M354.983,77.111l50.907-16.978l5.062,15.18L360.045,92.29L354.983,77.111z"/>
	<path style="fill:#FCD821;" d="M40.422,160.21h48v16h-48V160.21z"/>
	<path style="fill:#FCD821;" d="M392.422,160.21h48v16h-48V160.21z"/>
	<path style="fill:#FCD821;" d="M68.845,281.051l48-24l7.156,14.313l-48,24L68.845,281.051z"/>
	<path style="fill:#FCD821;" d="M356.821,271.363l7.156-14.313l48,24l-7.156,14.313L356.821,271.363z"/>
	<path style="fill:#FCD821;" d="M232.422,0.21h16v40h-16V0.21z"/>
</g>
<path style="fill:#344496;" d="M0,464.21h480.418v16H0L0,464.21z"/>
<g>
	<path style="fill:#576396;" d="M0.396,448.242l0.841-15.977l152,8l-0.841,15.977L0.396,448.242z"/>
	<path style="fill:#576396;" d="M327.577,440.247l151.999-8.028l0.844,15.977l-151.999,8.028L327.577,440.247z"/>
</g>
<g>
</g>
<g>
</g>
<g>
</g>
<g>
</g>
<g>
</g>
<g>
</g>
<g>
</g>
<g>
</g>
<g>
</g>
<g>
</g>
<g>
</g>
<g>
</g>
<g>
</g>
<g>
</g>
<g>
</g>
</svg>
